<?xml version="1.0" encoding="UTF-8" standalone="no"?>
<!-- Created with Inkscape (http://www.inkscape.org/) -->

<svg
   xmlns:dc="http://purl.org/dc/elements/1.1/"
   xmlns:cc="http://creativecommons.org/ns#"
   xmlns:rdf="http://www.w3.org/1999/02/22-rdf-syntax-ns#"
   xmlns:svg="http://www.w3.org/2000/svg"
   xmlns="http://www.w3.org/2000/svg"
   xmlns:sodipodi="http://sodipodi.sourceforge.net/DTD/sodipodi-0.dtd"
   xmlns:inkscape="http://www.inkscape.org/namespaces/inkscape"
   id="svg2"
   sodipodi:version="0.32"
   inkscape:version="0.48.2 r9819"
   width="765"
   height="990"
   xml:space="preserve"
   sodipodi:docname="Official Logo.svg"
   inkscape:output_extension="org.inkscape.output.svg.inkscape"
   version="1.1"
   inkscape:export-filename="/Users/eshon/dev/qgis-us.github.io/images/osgeo_logo.png"
   inkscape:export-xdpi="90"
   inkscape:export-ydpi="90"><metadata
     id="metadata7"><rdf:RDF><cc:Work
         rdf:about=""><dc:format>image/svg+xml</dc:format><dc:type
           rdf:resource="http://purl.org/dc/dcmitype/StillImage" /><dc:title></dc:title></cc:Work></rdf:RDF></metadata><defs
     id="defs5"><inkscape:perspective
       sodipodi:type="inkscape:persp3d"
       inkscape:vp_x="0 : 526.18109 : 1"
       inkscape:vp_y="0 : 1000 : 0"
       inkscape:vp_z="744.09448 : 526.18109 : 1"
       inkscape:persp3d-origin="372.04724 : 350.78739 : 1"
       id="perspective9" /><clipPath
       clipPathUnits="userSpaceOnUse"
       id="clipPath17"><path
         d="M 0,792 L 612,792 L 612,0 L 0,0 L 0,792 z"
         id="path19" /></clipPath></defs><sodipodi:namedview
     inkscape:window-height="753"
     inkscape:window-width="873"
     inkscape:pageshadow="2"
     inkscape:pageopacity="0.0"
     guidetolerance="10.0"
     gridtolerance="10.0"
     objecttolerance="10.0"
     borderopacity="1.0"
     bordercolor="#666666"
     pagecolor="#ffffff"
     id="base"
     showgrid="false"
     inkscape:zoom="1"
     inkscape:cx="382.5"
     inkscape:cy="466.61446"
     inkscape:window-x="526"
     inkscape:window-y="106"
     inkscape:current-layer="g11"
     inkscape:window-maximized="0" /><g
     id="g11"
     inkscape:groupmode="layer"
     inkscape:label="Official Logo"
     transform="matrix(1.25,0,0,-1.25,0,990)"><g
       id="g13"
       transform="matrix(0.35118791,0,0,0.35118791,101.87336,215.31199)"><g
         id="g15"
         clip-path="url(#clipPath17)"><g
           id="g21"
           transform="translate(275.0498,370.666)"><path
             d="m 0,0 c -2.13,3.634 -3.21,8.231 -3.21,13.663 0,5.647 1.053,10.163 3.123,13.423 2.051,3.226 5.085,4.858 9.016,4.858 9.046,0 13.441,-5.978 13.441,-18.281 C 22.37,7.63 21.205,2.883 18.908,-0.442 16.634,-3.736 13.274,-5.404 8.929,-5.404 5.108,-5.404 2.106,-3.586 0,0 m -5.357,31.244 c -3.491,-4.698 -5.262,-10.612 -5.262,-17.581 0,-7.401 1.734,-13.557 5.163,-18.297 3.445,-4.77 8.283,-7.189 14.382,-7.189 6.678,0 11.882,2.289 15.47,6.801 3.572,4.496 5.386,10.782 5.386,18.685 0,7.715 -1.808,13.816 -5.374,18.147 -3.574,4.347 -8.783,6.55 -15.482,6.55 -5.967,0 -10.769,-2.395 -14.283,-7.116"
             style="fill:#46ae33;fill-opacity:1;fill-rule:nonzero;stroke:none"
             id="path23"
             inkscape:connector-curvature="0" /></g><g
           id="g25"
           transform="translate(313.2461,405.416)"><path
             d="m 0,0 c -2.586,-2.399 -3.895,-5.466 -3.895,-9.111 0,-2.982 0.668,-5.579 1.991,-7.709 1.318,-2.132 3.664,-3.995 6.976,-5.538 l 3.862,-1.807 c 3.408,-1.606 5.56,-3.1 6.392,-4.439 0.832,-1.338 1.252,-2.81 1.252,-4.372 0,-2.076 -0.75,-3.808 -2.236,-5.147 -1.488,-1.347 -3.494,-2.031 -5.971,-2.031 -1.402,0 -3.017,0.296 -4.805,0.889 -1.785,0.586 -3.293,1.328 -4.484,2.207 l -0.279,0.207 -2.592,-6.545 0.176,-0.117 c 3.045,-2.031 6.763,-3.06 11.056,-3.06 4.891,0 8.852,1.291 11.782,3.837 2.941,2.553 4.435,5.708 4.435,9.378 0,3.354 -0.68,6.159 -2.025,8.345 -1.346,2.188 -3.707,4.09 -7.02,5.657 l -3.935,1.868 c -2.508,1.212 -4.188,2.157 -4.985,2.819 -0.785,0.648 -1.408,1.465 -1.845,2.429 -0.444,0.969 -0.666,2.057 -0.666,3.239 0,1.906 0.621,3.49 1.843,4.701 1.225,1.214 2.94,1.826 5.094,1.826 1.496,0 3.15,-0.297 4.916,-0.875 1.762,-0.584 3.086,-1.191 3.943,-1.808 l 0.288,-0.215 2.113,6.218 -0.139,0.116 C 19.121,2.719 15.33,3.61 9.969,3.61 5.934,3.61 2.578,2.396 0,0"
             style="fill:#46ae33;fill-opacity:1;fill-rule:nonzero;stroke:none"
             id="path27"
             inkscape:connector-curvature="0" /></g><g
           id="g29"
           transform="translate(347.8613,402.0078)"><path
             d="m 0,0 c -4.223,-4.647 -6.365,-10.792 -6.365,-18.251 0,-7.48 1.953,-13.564 5.806,-18.084 3.866,-4.53 9.202,-6.83 15.864,-6.83 2.951,0 6.039,0.466 9.17,1.374 3.142,0.911 5.63,2.14 7.396,3.644 l 0.096,0.076 0,21.3 -13.711,0 0,-6.083 6.633,0 0,-10.875 c -2.09,-1.997 -4.848,-3.017 -8.209,-3.017 -4.805,0 -8.647,1.677 -11.428,4.989 -2.791,3.322 -4.203,7.778 -4.203,13.24 0,5.748 1.439,10.428 4.285,13.905 2.832,3.463 6.752,5.216 11.658,5.216 3.086,0 6.287,-1.216 9.518,-3.609 l 0.254,-0.187 2.947,5.865 -0.156,0.135 C 26.377,5.601 22.217,7.021 17.182,7.021 10.01,7.021 4.229,4.655 0,0"
             style="fill:#46ae33;fill-opacity:1;fill-rule:nonzero;stroke:none"
             id="path31"
             inkscape:connector-curvature="0" /></g><g
           id="g33"
           transform="translate(395.6426,387.5645)"><path
             d="m 0,0 c 1.814,1.733 4.098,2.612 6.783,2.612 2.875,0 5.178,-0.894 6.84,-2.663 1.455,-1.559 2.18,-3.539 2.236,-5.841 l -18.742,0 C -2.598,-3.573 -1.662,-1.575 0,0 m -4.854,3.604 c -3.55,-3.531 -5.351,-8.276 -5.351,-14.106 0,-5.62 1.756,-10.154 5.219,-13.49 3.115,-3.027 6.951,-4.561 11.41,-4.561 3.074,0 5.898,0.472 8.408,1.406 2.006,0.71 3.527,1.574 4.512,2.569 l 0.142,0.143 -2.884,4.932 -0.239,-0.215 c -2.316,-2.045 -5.25,-3.083 -8.724,-3.083 -3.039,0 -5.549,0.947 -7.475,2.809 -2.133,2.095 -3.221,5.134 -3.269,9.011 l 25.205,0 0.052,0.195 c 0.332,1.178 0.5,2.48 0.5,3.873 0,4.531 -1.412,8.225 -4.205,10.973 C 15.57,6.916 11.551,8.366 6.502,8.366 2.146,8.366 -1.67,6.763 -4.854,3.604"
             style="fill:#46ae33;fill-opacity:1;fill-rule:nonzero;stroke:none"
             id="path35"
             inkscape:connector-curvature="0" /></g><g
           id="g37"
           transform="translate(429.7441,377.5527)"><path
             d="m 0,0 c 0,3.992 0.838,7.162 2.488,9.422 1.633,2.233 3.848,3.365 6.588,3.365 6.084,0 9.043,-4.181 9.043,-12.787 0,-4.015 -0.814,-7.22 -2.428,-9.526 -1.587,-2.276 -3.812,-3.426 -6.615,-3.426 C 2.969,-12.952 0,-8.717 0,0 M -2.641,13.292 C -5.586,9.927 -7.08,5.458 -7.08,0 c 0,-5.627 1.432,-10.174 4.258,-13.504 2.834,-3.343 6.836,-5.037 11.898,-5.037 4.951,0 8.918,1.677 11.799,4.985 2.869,3.303 4.322,7.861 4.322,13.556 0,5.714 -1.42,10.253 -4.224,13.487 -2.815,3.244 -6.815,4.891 -11.897,4.891 -4.818,0 -8.763,-1.711 -11.717,-5.086"
             style="fill:#46ae33;fill-opacity:1;fill-rule:nonzero;stroke:none"
             id="path39"
             inkscape:connector-curvature="0" /></g><g
           id="g41"
           transform="translate(249.7598,341.2275)"><path
             d="m 0,0 -0.851,-4.646 -1.666,0 0.851,4.646 -2.295,8.265 1.739,0 1.149,-4.365 c 0.203,-0.761 0.37,-1.508 0.517,-2.234 l 0.02,0 c 0.428,0.782 0.962,1.623 1.499,2.485 l 2.591,4.114 1.869,0 L 0,0"
             style="fill:#97d550;fill-opacity:1;fill-rule:nonzero;stroke:none"
             id="path43"
             inkscape:connector-curvature="0" /></g><g
           id="g45"
           transform="translate(258.1045,344.8037)"><path
             d="m 0,0 c -2.018,0 -3.367,-2.332 -3.367,-4.725 0,-1.414 0.556,-2.199 1.943,-2.199 1.795,0 3.369,1.99 3.369,4.765 C 1.945,-0.764 1.333,0 0,0 m -1.701,-8.395 c -2.317,0 -3.37,1.204 -3.37,3.385 0,3.787 2.331,6.465 5.331,6.465 2.426,0 3.424,-1.415 3.424,-3.424 0,-3.922 -2.612,-6.426 -5.385,-6.426"
             style="fill:#97d550;fill-opacity:1;fill-rule:nonzero;stroke:none"
             id="path47"
             inkscape:connector-curvature="0" /></g><g
           id="g49"
           transform="translate(270.208,336.582)"><path
             d="m 0,0 -1.627,0 c 0.129,0.63 0.371,1.72 1.016,3.746 l -0.035,0 c -0.872,-2.009 -2.313,-3.938 -4.239,-3.938 -1.701,0 -2.295,1.241 -1.924,3.231 l 1.185,6.464 1.645,0 -1.126,-6.081 c -0.28,-1.492 -0.019,-2.144 0.794,-2.144 1.704,0 3.609,3.733 4.036,6.084 l 0.386,2.141 1.627,0 L 0,0"
             style="fill:#97d550;fill-opacity:1;fill-rule:nonzero;stroke:none"
             id="path51"
             inkscape:connector-curvature="0" /></g><g
           id="g53"
           transform="translate(279.1104,344.5947)"><path
             d="m 0,0 c -1.7,0.498 -3.517,-3.232 -3.998,-5.875 l -0.388,-2.138 -1.631,0 1.741,9.504 1.593,0 C -2.832,0.67 -3.09,-0.344 -3.628,-2.01 l 0.036,-0.018 c 1.038,2.313 2.15,3.997 3.925,3.692 L 0,0"
             style="fill:#97d550;fill-opacity:1;fill-rule:nonzero;stroke:none"
             id="path55"
             inkscape:connector-curvature="0" /></g><g
           id="g57"
           transform="translate(290.6777,348.1338)"><path
             d="m 0,0 c -2.959,0 -5.07,-3.136 -5.07,-6.792 0,-2.083 0.997,-3.383 2.904,-3.383 2.831,0 5.145,3.002 5.145,6.827 C 2.979,-1.302 2.019,0 0,0 m -2.405,-11.746 c -3.018,0 -4.462,1.76 -4.462,4.707 0,4.667 3.071,8.586 7.144,8.586 2.905,0 4.494,-1.72 4.494,-4.705 0,-4.912 -3.218,-8.588 -7.176,-8.588"
             style="fill:#97d550;fill-opacity:1;fill-rule:nonzero;stroke:none"
             id="path59"
             inkscape:connector-curvature="0" /></g><g
           id="g61"
           transform="translate(302.4453,344.8037)"><path
             d="m 0,0 c -1.738,0 -3.607,-3.807 -4.034,-6.043 l -0.148,-0.728 c 0.389,-0.132 0.945,-0.227 1.334,-0.227 2.703,0 3.793,2.909 3.793,5.258 C 0.945,-0.497 0.576,0 0,0 m -3.164,-8.357 c -0.462,0 -0.87,0.039 -1.295,0.115 l -0.854,-4.706 -1.625,0 2.608,14.231 1.63,0 c -0.166,-0.822 -0.407,-1.76 -1.037,-3.808 l 0.039,-0.018 c 0.942,2.238 2.387,4.016 4.274,4.016 1.33,0 2.053,-0.88 2.053,-2.888 0,-3.5 -1.76,-6.942 -5.793,-6.942"
             style="fill:#97d550;fill-opacity:1;fill-rule:nonzero;stroke:none"
             id="path63"
             inkscape:connector-curvature="0" /></g><g
           id="g65"
           transform="translate(311.1816,344.958)"><path
             d="M 0,0 C -1.463,0 -2.443,-1.322 -2.867,-2.926 -0.018,-2.812 1.242,-2.22 1.242,-1.07 1.242,-0.381 0.74,0 0,0 m -3.072,-4.187 c -0.055,-0.29 -0.092,-0.766 -0.092,-1.11 0,-1.474 0.5,-1.855 1.98,-1.855 0.868,0 1.795,0.211 2.59,0.552 l 0,-1.378 c -0.888,-0.362 -1.961,-0.571 -3.164,-0.571 -2.109,0 -3.09,0.934 -3.09,3.078 0,3.694 1.981,6.772 5.034,6.772 1.96,0 2.701,-1.033 2.701,-2.162 0,-2.047 -2.018,-3.174 -5.959,-3.326"
             style="fill:#97d550;fill-opacity:1;fill-rule:nonzero;stroke:none"
             id="path67"
             inkscape:connector-curvature="0" /></g><g
           id="g69"
           transform="translate(322.4336,336.582)"><path
             d="M 0,0 -1.627,0 -0.5,6.082 c 0.279,1.491 0.02,2.14 -0.813,2.14 -1.703,0 -3.591,-3.728 -4.015,-6.083 L -5.717,0 -7.346,0 -6.42,4.972 c 0.24,1.356 0.572,3.136 0.811,4.531 l 1.613,0 C -4.109,8.872 -4.365,7.784 -5.014,5.755 l 0.037,0 c 0.868,2.009 2.331,3.939 4.254,3.939 1.702,0 2.278,-1.243 1.928,-3.23 L 0,0"
             style="fill:#97d550;fill-opacity:1;fill-rule:nonzero;stroke:none"
             id="path71"
             inkscape:connector-curvature="0" /></g><g
           id="g73"
           transform="translate(336.793,347.9209)"><path
             d="m 0,0 c -0.609,0.229 -1.273,0.308 -1.738,0.308 -1.85,0 -2.684,-1.091 -2.684,-2.123 0,-2.334 3.813,-2.414 3.813,-5.472 0,-2.39 -2.036,-4.246 -4.94,-4.246 -0.666,0 -1.445,0.078 -2.055,0.268 l 0.315,1.685 c 0.519,-0.231 1.258,-0.403 1.887,-0.403 1.925,0 3.017,0.977 3.017,2.41 0,2.237 -3.795,2.256 -3.795,5.355 0,2.121 1.61,3.979 4.61,3.979 0.629,0 1.183,-0.038 1.886,-0.19 L 0,0"
             style="fill:#97d550;fill-opacity:1;fill-rule:nonzero;stroke:none"
             id="path75"
             inkscape:connector-curvature="0" /></g><g
           id="g77"
           transform="translate(342.9043,344.8037)"><path
             d="m 0,0 c -2.018,0 -3.369,-2.332 -3.369,-4.725 0,-1.414 0.553,-2.199 1.941,-2.199 1.795,0 3.367,1.99 3.367,4.765 C 1.939,-0.764 1.332,0 0,0 m -1.703,-8.395 c -2.315,0 -3.371,1.204 -3.371,3.385 0,3.787 2.334,6.465 5.332,6.465 2.426,0 3.424,-1.415 3.424,-3.424 0,-3.922 -2.61,-6.426 -5.385,-6.426"
             style="fill:#97d550;fill-opacity:1;fill-rule:nonzero;stroke:none"
             id="path79"
             inkscape:connector-curvature="0" /></g><g
           id="g81"
           transform="translate(355.0059,336.582)"><path
             d="m 0,0 -1.629,0 c 0.131,0.63 0.371,1.72 1.018,3.746 l -0.035,0 c -0.872,-2.009 -2.317,-3.938 -4.239,-3.938 -1.705,0 -2.297,1.241 -1.926,3.231 l 1.184,6.464 1.648,0 -1.128,-6.081 c -0.28,-1.492 -0.02,-2.144 0.796,-2.144 1.702,0 3.61,3.733 4.034,6.084 l 0.386,2.141 1.631,0 L 0,0"
             style="fill:#97d550;fill-opacity:1;fill-rule:nonzero;stroke:none"
             id="path83"
             inkscape:connector-curvature="0" /></g><g
           id="g85"
           transform="translate(363.8887,344.5947)"><path
             d="m 0,0 c -1.701,0.498 -3.516,-3.232 -4,-5.875 l -0.383,-2.138 -1.633,0 1.741,9.504 1.591,0 C -2.83,0.67 -3.09,-0.344 -3.627,-2.01 l 0.037,-0.018 c 1.035,2.313 2.147,3.997 3.924,3.692 L 0,0"
             style="fill:#97d550;fill-opacity:1;fill-rule:nonzero;stroke:none"
             id="path87"
             inkscape:connector-curvature="0" /></g><g
           id="g89"
           transform="translate(370.957,344.4609)"><path
             d="m 0,0 c -0.5,0.229 -1.033,0.364 -1.684,0.364 -2.332,0 -3.421,-2.717 -3.421,-4.879 0,-0.992 0.312,-2.009 1.923,-2.009 0.721,0 1.498,0.173 2.075,0.459 l -0.114,-1.509 c -0.646,-0.249 -1.498,-0.459 -2.425,-0.459 -2.385,0 -3.2,1.337 -3.2,3.136 0,3.634 1.981,6.675 5.274,6.675 0.759,0 1.369,-0.114 1.943,-0.285 L 0,0"
             style="fill:#97d550;fill-opacity:1;fill-rule:nonzero;stroke:none"
             id="path91"
             inkscape:connector-curvature="0" /></g><g
           id="g93"
           transform="translate(376.6387,344.958)"><path
             d="M 0,0 C -1.461,0 -2.441,-1.322 -2.867,-2.926 -0.02,-2.812 1.24,-2.22 1.24,-1.07 1.24,-0.381 0.74,0 0,0 m -3.072,-4.187 c -0.055,-0.29 -0.092,-0.766 -0.092,-1.11 0,-1.474 0.5,-1.855 1.982,-1.855 0.866,0 1.793,0.211 2.59,0.552 l 0,-1.378 c -0.887,-0.362 -1.963,-0.571 -3.166,-0.571 -2.107,0 -3.088,0.934 -3.088,3.078 0,3.694 1.979,6.772 5.032,6.772 1.96,0 2.703,-1.033 2.703,-2.162 0,-2.047 -2.018,-3.174 -5.961,-3.326"
             style="fill:#97d550;fill-opacity:1;fill-rule:nonzero;stroke:none"
             id="path95"
             inkscape:connector-curvature="0" /></g><g
           id="g97"
           transform="translate(394.4609,347.6162)"><path
             d="m 0,0 c -0.869,0.326 -1.74,0.459 -2.592,0.459 -3.625,0 -5.088,-3.672 -5.088,-6.924 0,-1.854 0.742,-3.156 3.147,-3.156 1.035,0 2.053,0.229 2.904,0.632 l -0.074,-1.589 c -0.996,-0.381 -2.164,-0.61 -3.328,-0.61 -3.573,0 -4.498,2.162 -4.498,4.436 0,4.515 2.459,8.742 7.177,8.742 1.057,0 1.944,-0.154 2.758,-0.386 L 0,0"
             style="fill:#97d550;fill-opacity:1;fill-rule:nonzero;stroke:none"
             id="path99"
             inkscape:connector-curvature="0" /></g><g
           id="g101"
           transform="translate(399.7363,344.8037)"><path
             d="m 0,0 c -2.018,0 -3.367,-2.332 -3.367,-4.725 0,-1.414 0.554,-2.199 1.941,-2.199 1.797,0 3.367,1.99 3.367,4.765 C 1.941,-0.764 1.334,0 0,0 m -1.701,-8.395 c -2.315,0 -3.369,1.204 -3.369,3.385 0,3.787 2.33,6.465 5.33,6.465 2.424,0 3.424,-1.415 3.424,-3.424 0,-3.922 -2.608,-6.426 -5.385,-6.426"
             style="fill:#97d550;fill-opacity:1;fill-rule:nonzero;stroke:none"
             id="path103"
             inkscape:connector-curvature="0" /></g><g
           id="g105"
           transform="translate(417.4297,336.582)"><path
             d="m 0,0 -1.648,0 1.13,6.082 C -0.24,7.573 -0.5,8.243 -1.26,8.243 -2.832,8.243 -4.756,4.722 -5.238,2.139 L -5.625,0 -7.256,0 -6.127,6.082 c 0.279,1.491 0.037,2.161 -0.76,2.161 -1.552,0 -3.478,-3.521 -3.959,-6.104 L -11.234,0 l -1.627,0 0.922,4.972 c 0.261,1.415 0.576,3.136 0.814,4.531 l 1.611,0 C -9.621,8.872 -9.883,7.764 -10.531,5.755 l 0.037,0 c 0.849,1.99 2.295,3.939 4.183,3.939 1.184,0 1.85,-0.668 1.85,-1.853 0,-0.593 -0.148,-1.149 -0.443,-2.104 l 0.037,-0.019 c 0.849,2.046 2.295,3.976 4.181,3.976 1.666,0 2.241,-1.243 1.868,-3.23 L 0,0"
             style="fill:#97d550;fill-opacity:1;fill-rule:nonzero;stroke:none"
             id="path107"
             inkscape:connector-curvature="0" /></g><g
           id="g109"
           transform="translate(426.2773,344.8037)"><path
             d="m 0,0 c -1.742,0 -3.611,-3.807 -4.037,-6.043 l -0.149,-0.728 c 0.389,-0.132 0.946,-0.227 1.332,-0.227 2.706,0 3.797,2.909 3.797,5.258 C 0.943,-0.497 0.572,0 0,0 m -3.166,-8.357 c -0.463,0 -0.871,0.039 -1.295,0.115 l -0.853,-4.706 -1.627,0 2.609,14.231 1.627,0 C -2.869,0.461 -3.113,-0.477 -3.74,-2.525 l 0.035,-0.018 c 0.947,2.238 2.389,4.016 4.277,4.016 1.332,0 2.053,-0.88 2.053,-2.888 0,-3.5 -1.756,-6.942 -5.791,-6.942"
             style="fill:#97d550;fill-opacity:1;fill-rule:nonzero;stroke:none"
             id="path111"
             inkscape:connector-curvature="0" /></g><g
           id="g113"
           transform="translate(435.6016,344.8799)"><path
             d="m 0,0 c -2.738,0 -3.811,-2.924 -3.811,-5.277 0,-1.244 0.372,-1.743 0.944,-1.743 1.738,0 3.627,3.808 4.053,6.084 l 0.132,0.763 C 0.945,-0.076 0.521,0 0,0 m 1.463,-8.298 -1.647,0 c 0.168,0.819 0.518,2.084 1.075,3.862 l -0.039,0.017 c -0.666,-1.47 -2.053,-4.073 -4.291,-4.073 -1.332,0 -2.057,0.883 -2.057,2.888 0,3.502 1.758,6.963 5.775,6.963 1.055,0 2.035,-0.114 2.889,-0.289 C 2.186,-4.247 1.852,-6.023 1.463,-8.298"
             style="fill:#97d550;fill-opacity:1;fill-rule:nonzero;stroke:none"
             id="path115"
             inkscape:connector-curvature="0" /></g><g
           id="g117"
           transform="translate(445.4863,344.7275)"><path
             d="m 0,0 c -0.447,0.152 -0.926,0.23 -1.387,0.23 -1.205,0 -1.834,-0.591 -1.834,-1.396 0,-1.512 2.793,-1.912 2.793,-4.056 0,-1.587 -1.349,-3.096 -3.959,-3.096 -0.611,0 -1.111,0.035 -1.574,0.133 l 0.297,1.529 c 0.48,-0.153 0.978,-0.248 1.498,-0.248 1.203,0 2.016,0.496 2.016,1.492 0,1.51 -2.776,1.761 -2.776,4.056 0,1.627 1.26,2.886 3.647,2.886 0.648,0 1.113,-0.057 1.576,-0.133 L 0,0"
             style="fill:#97d550;fill-opacity:1;fill-rule:nonzero;stroke:none"
             id="path119"
             inkscape:connector-curvature="0" /></g><g
           id="g121"
           transform="translate(452.4453,344.7275)"><path
             d="m 0,0 c -0.447,0.152 -0.926,0.23 -1.391,0.23 -1.203,0 -1.832,-0.591 -1.832,-1.396 0,-1.512 2.795,-1.912 2.795,-4.056 0,-1.587 -1.349,-3.096 -3.959,-3.096 -0.609,0 -1.113,0.035 -1.574,0.133 l 0.297,1.529 c 0.48,-0.153 0.98,-0.248 1.496,-0.248 1.203,0 2.022,0.496 2.022,1.492 0,1.51 -2.78,1.761 -2.78,4.056 0,1.627 1.26,2.886 3.647,2.886 0.648,0 1.109,-0.057 1.572,-0.133 L 0,0"
             style="fill:#97d550;fill-opacity:1;fill-rule:nonzero;stroke:none"
             id="path123"
             inkscape:connector-curvature="0" /></g><g
           id="g125"
           transform="translate(216.7764,393.6641)"><path
             d="m 0,0 17.893,5.752 -16.295,-9.135 9.334,-6.34 -10.619,2.807 5.941,-18.463 -9.404,16.9 -5.688,-9.453 2.135,10.875 -17.781,-5.935 16.347,9.4 -10.282,5.85 11.716,-2.43 -6.584,17.391 L -3.389,1.246 2.41,11.334 0,0 z"
             style="fill:#46ae33;fill-opacity:1;fill-rule:evenodd;stroke:none"
             id="path127"
             inkscape:connector-curvature="0" /></g><g
           id="g129"
           transform="translate(213.5293,437.9531)"><path
             d="m 0,0 c 18.144,0 33.927,-10.073 42.085,-24.928 l 3.402,0.497 C 36.944,-8.01 19.79,3.215 0,3.215 c -5.536,0 -10.863,-0.889 -15.858,-2.512 l 1.988,-2.746 C -9.478,-0.72 -4.823,0 0,0"
             style="fill:#46ae33;fill-opacity:1;fill-rule:nonzero;stroke:none"
             id="path131"
             inkscape:connector-curvature="0" /></g><g
           id="g133"
           transform="translate(235.7402,340.4502)"><path
             d="m 0,0 -28.781,33.65 -43.373,-6.333 32.799,28.005 0.447,0.383 -11.249,55.417 33.51,-45.9 L 26.767,71.56 -6.334,43.383 0,0 z m -22.211,1.519 c -18.143,0 -33.932,10.07 -42.09,24.923 l 16.735,2.444 c 5.872,-7.41 14.944,-12.17 25.133,-12.17 1.753,0 3.471,0.146 5.147,0.417 L -6.26,4.241 C -11.251,2.481 -16.617,1.519 -22.211,1.519 m -25.701,88.513 3.616,-17.826 c -6.269,-5.852 -10.193,-14.184 -10.193,-23.435 0,-1.208 0.072,-2.396 0.202,-3.568 l -13.408,-11.449 0.117,0.1 c -1.693,4.909 -2.626,10.172 -2.626,15.657 0,17.049 8.896,32.009 22.292,40.521 M 9.622,48.771 c 0,1.773 -0.15,3.509 -0.427,5.205 L 33.356,74.544 1.651,69.914 c -5.875,6.689 -14.483,10.915 -24.084,10.915 -0.996,0 -1.979,-0.052 -2.952,-0.141 l -28.662,39.583 5.449,-26.862 c -14.906,-8.967 -24.88,-25.297 -24.88,-43.961 0,-6.293 1.139,-12.316 3.214,-17.886 l -8.461,-7.225 10.961,1.601 c 8.525,-16.482 25.716,-27.755 45.553,-27.755 6.434,0 12.583,1.199 18.254,3.366 l 6.936,-8.11 -4.53,31.023 C 5.286,30.341 9.622,39.047 9.622,48.771"
             style="fill:#97d550;fill-opacity:1;fill-rule:nonzero;stroke:none"
             id="path135"
             inkscape:connector-curvature="0" /></g><g
           id="g137"
           transform="translate(167.9766,366.3877)"><path
             d="m 0,0 c 8.524,-16.481 25.716,-27.755 45.553,-27.755 6.433,0 12.583,1.199 18.254,3.366 l -2.303,2.693 c -4.991,-1.76 -10.358,-2.723 -15.951,-2.723 -18.144,0 -33.932,10.07 -42.09,24.924 L 0,0 z M 19.166,67.472 C 4.26,58.505 -5.714,42.175 -5.714,23.511 c 0,-6.293 1.139,-12.317 3.214,-17.887 l 2.686,2.293 c -1.694,4.908 -2.626,10.172 -2.626,15.656 0,17.049 8.896,32.009 22.292,40.522 l -0.686,3.377 z"
             style="fill:#46ae33;fill-opacity:1;fill-rule:nonzero;stroke:none"
             id="path139"
             inkscape:connector-curvature="0" /></g></g></g></g></svg>